<?xml version="1.0" encoding="utf-8"?>
<!-- Generator: Adobe Illustrator 23.1.0, SVG Export Plug-In . SVG Version: 6.00 Build 0)  -->
<svg version="1.1" id="Layer_1" xmlns="http://www.w3.org/2000/svg" xmlns:xlink="http://www.w3.org/1999/xlink" x="0px" y="0px"
	 width="324px" height="108px" viewBox="0 0 324 108" style="enable-background:new 0 0 324 108;" xml:space="preserve">
<style type="text/css">
	.st0{fill:#160647;}
	.st1{fill:#46D39A;}
</style>
<g>
	<path class="st0" d="M126,0h18c0,8.3,0,16.6,0,25c0,2.8,0.1,5.9-1.8,8.1c-1.7,2.2-4.5,3.1-7.1,3c-9,0-18.1,0-27.1,0c0-6,0-12,0-18
		c6,0,12,0,18,0C126,12,126,6,126,0z"/>
	<path class="st0" d="M234,0h18c0,6,0,12,0,18c-6,0-12,0-18,0C234,12,234,6,234,0z"/>
	<path class="st1" d="M276.9,0H324v17.9c-12,0-24,0-36,0c0,18,0,36.1,0,54.1c-6,0-12,0-18,0c0-19,0-38,0-57c0-3-0.2-6,0.3-8.9
		C270.9,2.8,273.8,0.7,276.9,0z"/>
	<path class="st0" d="M72,36c6,0,12,0,18,0c0,6,0,12,0,18c24,0,48,0,72,0c0-6,0-12,0-18c6,0,12,0,18,0c0,6,0,12,0,18c6,0,12,0,18,0
		c0-6,0-12,0-18c6,0,12,0,18,0c0,6,0,12,0,18c6,0,12,0,18,0c0-6,0-12,0-18c6,0,12,0,18,0c0,8.3,0,16.7,0,25
		c-0.1,2.6,0.1,5.4-1.5,7.6c-1.6,2.5-4.6,3.6-7.5,3.4c-51,0-102,0-153,0c-0.1,9.4,0.1,18.8-0.1,28.1c0.1,4-3.2,7.3-7,7.9H6.7
		c-3.4-0.8-6.1-3.4-6.7-6.9V54c6,0,12,0,18,0c0,12,0,24,0,36c18,0,36,0,54,0C72,72,72,54,72,36z"/>
	<path class="st0" d="M198,90c6,0,12,0,18,0c0,6,0,12,0,18h-18C198,102,198,96,198,90z"/>
</g>
</svg>
